<?xml version="1.0" encoding="UTF-8" standalone="no"?>
<!DOCTYPE svg PUBLIC "-//W3C//DTD SVG 1.1//EN"
 "http://www.w3.org/Graphics/SVG/1.1/DTD/svg11.dtd">
<!-- Generated by graphviz version 12.0.0 (0)
 -->
<!-- Pages: 1 -->
<svg width="2630pt" height="548pt"
 viewBox="0.00 0.00 2630.25 548.00" xmlns="http://www.w3.org/2000/svg" xmlns:xlink="http://www.w3.org/1999/xlink">
<g id="graph0" class="graph" transform="scale(1 1) rotate(0) translate(4 544)">
<polygon fill="white" stroke="none" points="-4,4 -4,-544 2626.25,-544 2626.25,4 -4,4"/>
<!-- noe -->
<g id="node1" class="node">
<title>noe</title>
<polygon fill="none" stroke="black" points="1617.25,-540 1563.25,-540 1563.25,-504 1617.25,-504 1617.25,-540"/>
<text text-anchor="middle" x="1590.25" y="-516.58" font-family="Times,serif" font-size="14.00">Noé</text>
</g>
<!-- sem -->
<g id="node2" class="node">
<title>sem</title>
<polygon fill="none" stroke="black" points="1170.25,-468 1116.25,-468 1116.25,-432 1170.25,-432 1170.25,-468"/>
<text text-anchor="middle" x="1143.25" y="-444.57" font-family="Times,serif" font-size="14.00">Sem</text>
</g>
<!-- noe&#45;&gt;sem -->
<g id="edge1" class="edge">
<title>noe&#45;&gt;sem</title>
<path fill="none" stroke="black" d="M1562.96,-516.73C1486.59,-504.77 1270.5,-470.93 1181.89,-457.05"/>
<polygon fill="black" stroke="black" points="1182.67,-453.63 1172.25,-455.54 1181.58,-460.55 1182.67,-453.63"/>
</g>
<!-- cam -->
<g id="node3" class="node">
<title>cam</title>
<polygon fill="none" stroke="black" points="1617.25,-468 1563.25,-468 1563.25,-432 1617.25,-432 1617.25,-468"/>
<text text-anchor="middle" x="1590.25" y="-444.57" font-family="Times,serif" font-size="14.00">Cam</text>
</g>
<!-- noe&#45;&gt;cam -->
<g id="edge2" class="edge">
<title>noe&#45;&gt;cam</title>
<path fill="none" stroke="black" d="M1590.25,-503.7C1590.25,-496.41 1590.25,-487.73 1590.25,-479.54"/>
<polygon fill="black" stroke="black" points="1593.75,-479.62 1590.25,-469.62 1586.75,-479.62 1593.75,-479.62"/>
</g>
<!-- jafe -->
<g id="node4" class="node">
<title>jafe</title>
<polygon fill="none" stroke="black" points="2360.25,-468 2306.25,-468 2306.25,-432 2360.25,-432 2360.25,-468"/>
<text text-anchor="middle" x="2333.25" y="-444.57" font-family="Times,serif" font-size="14.00">Jafé</text>
</g>
<!-- noe&#45;&gt;jafe -->
<g id="edge3" class="edge">
<title>noe&#45;&gt;jafe</title>
<path fill="none" stroke="black" d="M1617.57,-518.43C1730.79,-507.76 2163.31,-467.01 2294.99,-454.6"/>
<polygon fill="black" stroke="black" points="2294.94,-458.13 2304.56,-453.7 2294.28,-451.16 2294.94,-458.13"/>
</g>
<!-- semitas -->
<g id="node50" class="node">
<title>semitas</title>
<polygon fill="none" stroke="black" points="701.88,-396 644.62,-396 644.62,-360 701.88,-360 701.88,-396"/>
<text text-anchor="middle" x="673.25" y="-372.57" font-family="Times,serif" font-size="14.00">semitas</text>
</g>
<!-- sem&#45;&gt;semitas -->
<g id="edge49" class="edge">
<title>sem&#45;&gt;semitas</title>
<path fill="none" stroke="black" d="M1115.95,-444.93C1036.76,-433.14 806.68,-398.87 713.32,-384.97"/>
<polygon fill="black" stroke="black" points="714.02,-381.53 703.61,-383.52 712.99,-388.46 714.02,-381.53"/>
</g>
<!-- cuxe -->
<g id="node19" class="node">
<title>cuxe</title>
<polygon fill="none" stroke="black" points="1132.75,-396 1047.75,-396 1047.75,-360 1132.75,-360 1132.75,-396"/>
<text text-anchor="middle" x="1090.25" y="-372.57" font-family="Times,serif" font-size="14.00">Cuxe (Cuse)</text>
</g>
<!-- cam&#45;&gt;cuxe -->
<g id="edge18" class="edge">
<title>cam&#45;&gt;cuxe</title>
<path fill="none" stroke="black" d="M1563.01,-445.19C1483.48,-434.05 1250.5,-401.43 1144.22,-386.56"/>
<polygon fill="black" stroke="black" points="1145.01,-383.13 1134.62,-385.21 1144.04,-390.06 1145.01,-383.13"/>
</g>
<!-- mizraim -->
<g id="node20" class="node">
<title>mizraim</title>
<polygon fill="none" stroke="black" points="1583.88,-396 1520.62,-396 1520.62,-360 1583.88,-360 1583.88,-396"/>
<text text-anchor="middle" x="1552.25" y="-372.57" font-family="Times,serif" font-size="14.00">Mizraim</text>
</g>
<!-- cam&#45;&gt;mizraim -->
<g id="edge19" class="edge">
<title>cam&#45;&gt;mizraim</title>
<path fill="none" stroke="black" d="M1580.86,-431.7C1576.67,-423.98 1571.64,-414.71 1566.97,-406.11"/>
<polygon fill="black" stroke="black" points="1570.1,-404.55 1562.26,-397.43 1563.95,-407.89 1570.1,-404.55"/>
</g>
<!-- pute -->
<g id="node21" class="node">
<title>pute</title>
<polygon fill="none" stroke="black" points="1656.25,-396 1602.25,-396 1602.25,-360 1656.25,-360 1656.25,-396"/>
<text text-anchor="middle" x="1629.25" y="-372.57" font-family="Times,serif" font-size="14.00">Pute</text>
</g>
<!-- cam&#45;&gt;pute -->
<g id="edge20" class="edge">
<title>cam&#45;&gt;pute</title>
<path fill="none" stroke="black" d="M1599.89,-431.7C1604.19,-423.98 1609.35,-414.71 1614.14,-406.11"/>
<polygon fill="black" stroke="black" points="1617.17,-407.87 1618.98,-397.43 1611.06,-404.46 1617.17,-407.87"/>
</g>
<!-- canaa -->
<g id="node22" class="node">
<title>canaa</title>
<polygon fill="none" stroke="black" points="1865.25,-396 1811.25,-396 1811.25,-360 1865.25,-360 1865.25,-396"/>
<text text-anchor="middle" x="1838.25" y="-372.57" font-family="Times,serif" font-size="14.00">Canaã</text>
</g>
<!-- cam&#45;&gt;canaa -->
<g id="edge21" class="edge">
<title>cam&#45;&gt;canaa</title>
<path fill="none" stroke="black" d="M1617.74,-441.24C1662.08,-428.73 1749.52,-404.05 1799.94,-389.81"/>
<polygon fill="black" stroke="black" points="1800.89,-393.18 1809.56,-387.1 1798.99,-386.45 1800.89,-393.18"/>
</g>
<!-- gomer -->
<g id="node5" class="node">
<title>gomer</title>
<polygon fill="none" stroke="black" points="2166.25,-396 2112.25,-396 2112.25,-360 2166.25,-360 2166.25,-396"/>
<text text-anchor="middle" x="2139.25" y="-372.57" font-family="Times,serif" font-size="14.00">Gomer</text>
</g>
<!-- jafe&#45;&gt;gomer -->
<g id="edge4" class="edge">
<title>jafe&#45;&gt;gomer</title>
<path fill="none" stroke="black" d="M2305.99,-440.76C2276.46,-431.62 2227.82,-415.98 2177.1,-396.11"/>
<polygon fill="black" stroke="black" points="2178.58,-392.94 2168,-392.51 2176,-399.45 2178.58,-392.94"/>
</g>
<!-- magogue -->
<g id="node6" class="node">
<title>magogue</title>
<polygon fill="none" stroke="black" points="2251.75,-396 2184.75,-396 2184.75,-360 2251.75,-360 2251.75,-396"/>
<text text-anchor="middle" x="2218.25" y="-372.57" font-family="Times,serif" font-size="14.00">Magogue</text>
</g>
<!-- jafe&#45;&gt;magogue -->
<g id="edge5" class="edge">
<title>jafe&#45;&gt;magogue</title>
<path fill="none" stroke="black" d="M2306,-432.41C2291.26,-423.44 2272.81,-412.21 2256.63,-402.36"/>
<polygon fill="black" stroke="black" points="2258.57,-399.44 2248.21,-397.23 2254.93,-405.42 2258.57,-399.44"/>
</g>
<!-- madai -->
<g id="node7" class="node">
<title>madai</title>
<polygon fill="none" stroke="black" points="2324.25,-396 2270.25,-396 2270.25,-360 2324.25,-360 2324.25,-396"/>
<text text-anchor="middle" x="2297.25" y="-372.57" font-family="Times,serif" font-size="14.00">Madai</text>
</g>
<!-- jafe&#45;&gt;madai -->
<g id="edge6" class="edge">
<title>jafe&#45;&gt;madai</title>
<path fill="none" stroke="black" d="M2324.35,-431.7C2320.38,-423.98 2315.62,-414.71 2311.19,-406.11"/>
<polygon fill="black" stroke="black" points="2314.42,-404.74 2306.74,-397.45 2308.2,-407.94 2314.42,-404.74"/>
</g>
<!-- java -->
<g id="node8" class="node">
<title>java</title>
<polygon fill="none" stroke="black" points="2396.25,-396 2342.25,-396 2342.25,-360 2396.25,-360 2396.25,-396"/>
<text text-anchor="middle" x="2369.25" y="-372.57" font-family="Times,serif" font-size="14.00">Javã</text>
</g>
<!-- jafe&#45;&gt;java -->
<g id="edge7" class="edge">
<title>jafe&#45;&gt;java</title>
<path fill="none" stroke="black" d="M2342.15,-431.7C2346.12,-423.98 2350.88,-414.71 2355.31,-406.11"/>
<polygon fill="black" stroke="black" points="2358.3,-407.94 2359.76,-397.45 2352.08,-404.74 2358.3,-407.94"/>
</g>
<!-- tubal -->
<g id="node9" class="node">
<title>tubal</title>
<polygon fill="none" stroke="black" points="2468.25,-396 2414.25,-396 2414.25,-360 2468.25,-360 2468.25,-396"/>
<text text-anchor="middle" x="2441.25" y="-372.57" font-family="Times,serif" font-size="14.00">Tubal</text>
</g>
<!-- jafe&#45;&gt;tubal -->
<g id="edge8" class="edge">
<title>jafe&#45;&gt;tubal</title>
<path fill="none" stroke="black" d="M2360.22,-431.52C2373.86,-422.68 2390.59,-411.84 2405.3,-402.3"/>
<polygon fill="black" stroke="black" points="2406.86,-405.46 2413.35,-397.08 2403.05,-399.59 2406.86,-405.46"/>
</g>
<!-- meseque -->
<g id="node10" class="node">
<title>meseque</title>
<polygon fill="none" stroke="black" points="2550.62,-396 2485.88,-396 2485.88,-360 2550.62,-360 2550.62,-396"/>
<text text-anchor="middle" x="2518.25" y="-372.57" font-family="Times,serif" font-size="14.00">Meseque</text>
</g>
<!-- jafe&#45;&gt;meseque -->
<g id="edge9" class="edge">
<title>jafe&#45;&gt;meseque</title>
<path fill="none" stroke="black" d="M2360.71,-439.27C2387.68,-429.63 2430.21,-414.21 2475.1,-396.78"/>
<polygon fill="black" stroke="black" points="2476.17,-400.11 2484.21,-393.22 2473.63,-393.59 2476.17,-400.11"/>
</g>
<!-- tiras -->
<g id="node11" class="node">
<title>tiras</title>
<polygon fill="none" stroke="black" points="2622.25,-396 2568.25,-396 2568.25,-360 2622.25,-360 2622.25,-396"/>
<text text-anchor="middle" x="2595.25" y="-372.57" font-family="Times,serif" font-size="14.00">Tiras</text>
</g>
<!-- jafe&#45;&gt;tiras -->
<g id="edge10" class="edge">
<title>jafe&#45;&gt;tiras</title>
<path fill="none" stroke="black" d="M2360.56,-444.52C2401.65,-437.37 2481.8,-421.85 2557.36,-396.28"/>
<polygon fill="black" stroke="black" points="2558.24,-399.68 2566.55,-393.1 2555.96,-393.06 2558.24,-399.68"/>
</g>
<!-- asquenaz -->
<g id="node12" class="node">
<title>asquenaz</title>
<polygon fill="none" stroke="black" points="2094.88,-324 2025.62,-324 2025.62,-288 2094.88,-288 2094.88,-324"/>
<text text-anchor="middle" x="2060.25" y="-300.57" font-family="Times,serif" font-size="14.00">Asquenaz</text>
</g>
<!-- gomer&#45;&gt;asquenaz -->
<g id="edge11" class="edge">
<title>gomer&#45;&gt;asquenaz</title>
<path fill="none" stroke="black" d="M2119.72,-359.7C2110.23,-351.28 2098.64,-341.02 2088.23,-331.79"/>
<polygon fill="black" stroke="black" points="2090.77,-329.36 2080.96,-325.35 2086.12,-334.6 2090.77,-329.36"/>
</g>
<!-- rifate -->
<g id="node13" class="node">
<title>rifate</title>
<polygon fill="none" stroke="black" points="2167.25,-324 2113.25,-324 2113.25,-288 2167.25,-288 2167.25,-324"/>
<text text-anchor="middle" x="2140.25" y="-300.57" font-family="Times,serif" font-size="14.00">Rifate</text>
</g>
<!-- gomer&#45;&gt;rifate -->
<g id="edge12" class="edge">
<title>gomer&#45;&gt;rifate</title>
<path fill="none" stroke="black" d="M2139.5,-359.7C2139.6,-352.41 2139.73,-343.73 2139.84,-335.54"/>
<polygon fill="black" stroke="black" points="2143.34,-335.67 2139.98,-325.62 2136.34,-335.57 2143.34,-335.67"/>
</g>
<!-- togarma -->
<g id="node14" class="node">
<title>togarma</title>
<polygon fill="none" stroke="black" points="2249.62,-324 2184.88,-324 2184.88,-288 2249.62,-288 2249.62,-324"/>
<text text-anchor="middle" x="2217.25" y="-300.57" font-family="Times,serif" font-size="14.00">Togarma</text>
</g>
<!-- gomer&#45;&gt;togarma -->
<g id="edge13" class="edge">
<title>gomer&#45;&gt;togarma</title>
<path fill="none" stroke="black" d="M2158.53,-359.7C2167.91,-351.28 2179.34,-341.02 2189.63,-331.79"/>
<polygon fill="black" stroke="black" points="2191.69,-334.64 2196.79,-325.36 2187.01,-329.43 2191.69,-334.64"/>
</g>
<!-- elisa -->
<g id="node15" class="node">
<title>elisa</title>
<polygon fill="none" stroke="black" points="2323.25,-324 2269.25,-324 2269.25,-288 2323.25,-288 2323.25,-324"/>
<text text-anchor="middle" x="2296.25" y="-300.57" font-family="Times,serif" font-size="14.00">Elisá</text>
</g>
<!-- java&#45;&gt;elisa -->
<g id="edge14" class="edge">
<title>java&#45;&gt;elisa</title>
<path fill="none" stroke="black" d="M2351.21,-359.7C2342.52,-351.37 2331.94,-341.22 2322.39,-332.07"/>
<polygon fill="black" stroke="black" points="2325.07,-329.79 2315.43,-325.39 2320.23,-334.84 2325.07,-329.79"/>
</g>
<!-- tarsis -->
<g id="node16" class="node">
<title>tarsis</title>
<polygon fill="none" stroke="black" points="2395.25,-324 2341.25,-324 2341.25,-288 2395.25,-288 2395.25,-324"/>
<text text-anchor="middle" x="2368.25" y="-300.57" font-family="Times,serif" font-size="14.00">Társis</text>
</g>
<!-- java&#45;&gt;tarsis -->
<g id="edge15" class="edge">
<title>java&#45;&gt;tarsis</title>
<path fill="none" stroke="black" d="M2369,-359.7C2368.9,-352.41 2368.77,-343.73 2368.66,-335.54"/>
<polygon fill="black" stroke="black" points="2372.16,-335.57 2368.52,-325.62 2365.16,-335.67 2372.16,-335.57"/>
</g>
<!-- quitim -->
<g id="node17" class="node">
<title>quitim</title>
<polygon fill="none" stroke="black" points="2468.75,-324 2413.75,-324 2413.75,-288 2468.75,-288 2468.75,-324"/>
<text text-anchor="middle" x="2441.25" y="-300.57" font-family="Times,serif" font-size="14.00">Quitim</text>
</g>
<!-- java&#45;&gt;quitim -->
<g id="edge16" class="edge">
<title>java&#45;&gt;quitim</title>
<path fill="none" stroke="black" d="M2387.05,-359.7C2395.53,-351.45 2405.84,-341.43 2415.18,-332.35"/>
<polygon fill="black" stroke="black" points="2417.59,-334.88 2422.32,-325.4 2412.71,-329.86 2417.59,-334.88"/>
</g>
<!-- dodanim -->
<g id="node18" class="node">
<title>dodanim</title>
<polygon fill="none" stroke="black" points="2553.75,-324 2486.75,-324 2486.75,-288 2553.75,-288 2553.75,-324"/>
<text text-anchor="middle" x="2520.25" y="-300.57" font-family="Times,serif" font-size="14.00">Dodanim</text>
</g>
<!-- java&#45;&gt;dodanim -->
<g id="edge17" class="edge">
<title>java&#45;&gt;dodanim</title>
<path fill="none" stroke="black" d="M2396.36,-364.16C2399.36,-362.75 2402.37,-361.34 2405.25,-360 2428.6,-349.11 2454.67,-337.08 2476.08,-327.24"/>
<polygon fill="black" stroke="black" points="2477.5,-330.44 2485.12,-323.09 2474.57,-324.08 2477.5,-330.44"/>
</g>
<!-- seba -->
<g id="node23" class="node">
<title>seba</title>
<polygon fill="none" stroke="black" points="901.25,-324 847.25,-324 847.25,-288 901.25,-288 901.25,-324"/>
<text text-anchor="middle" x="874.25" y="-300.57" font-family="Times,serif" font-size="14.00">Sebá</text>
</g>
<!-- cuxe&#45;&gt;seba -->
<g id="edge22" class="edge">
<title>cuxe&#45;&gt;seba</title>
<path fill="none" stroke="black" d="M1047.45,-366.4C1012.96,-357.42 963.16,-343.45 912.14,-324.44"/>
<polygon fill="black" stroke="black" points="913.58,-321.25 902.99,-320.98 911.1,-327.79 913.58,-321.25"/>
</g>
<!-- havila -->
<g id="node24" class="node">
<title>havila</title>
<polygon fill="none" stroke="black" points="973.25,-324 919.25,-324 919.25,-288 973.25,-288 973.25,-324"/>
<text text-anchor="middle" x="946.25" y="-300.57" font-family="Times,serif" font-size="14.00">Havilá</text>
</g>
<!-- cuxe&#45;&gt;havila -->
<g id="edge23" class="edge">
<title>cuxe&#45;&gt;havila</title>
<path fill="none" stroke="black" d="M1054.28,-359.52C1032.81,-349.08 1005.57,-335.83 983.81,-325.26"/>
<polygon fill="black" stroke="black" points="985.51,-322.19 974.99,-320.97 982.45,-328.49 985.51,-322.19"/>
</g>
<!-- sabta -->
<g id="node25" class="node">
<title>sabta</title>
<polygon fill="none" stroke="black" points="1045.25,-324 991.25,-324 991.25,-288 1045.25,-288 1045.25,-324"/>
<text text-anchor="middle" x="1018.25" y="-300.57" font-family="Times,serif" font-size="14.00">Sabtá</text>
</g>
<!-- cuxe&#45;&gt;sabta -->
<g id="edge24" class="edge">
<title>cuxe&#45;&gt;sabta</title>
<path fill="none" stroke="black" d="M1072.45,-359.7C1063.97,-351.45 1053.66,-341.43 1044.32,-332.35"/>
<polygon fill="black" stroke="black" points="1046.79,-329.86 1037.18,-325.4 1041.91,-334.88 1046.79,-329.86"/>
</g>
<!-- raama -->
<g id="node26" class="node">
<title>raama</title>
<polygon fill="none" stroke="black" points="1117.25,-324 1063.25,-324 1063.25,-288 1117.25,-288 1117.25,-324"/>
<text text-anchor="middle" x="1090.25" y="-300.57" font-family="Times,serif" font-size="14.00">Raamá</text>
</g>
<!-- cuxe&#45;&gt;raama -->
<g id="edge25" class="edge">
<title>cuxe&#45;&gt;raama</title>
<path fill="none" stroke="black" d="M1090.25,-359.7C1090.25,-352.41 1090.25,-343.73 1090.25,-335.54"/>
<polygon fill="black" stroke="black" points="1093.75,-335.62 1090.25,-325.62 1086.75,-335.62 1093.75,-335.62"/>
</g>
<!-- sabteca -->
<g id="node27" class="node">
<title>sabteca</title>
<polygon fill="none" stroke="black" points="1193.25,-324 1135.25,-324 1135.25,-288 1193.25,-288 1193.25,-324"/>
<text text-anchor="middle" x="1164.25" y="-300.57" font-family="Times,serif" font-size="14.00">Sabtecá</text>
</g>
<!-- cuxe&#45;&gt;sabteca -->
<g id="edge26" class="edge">
<title>cuxe&#45;&gt;sabteca</title>
<path fill="none" stroke="black" d="M1108.54,-359.7C1117.35,-351.37 1128.07,-341.22 1137.75,-332.07"/>
<polygon fill="black" stroke="black" points="1139.95,-334.8 1144.81,-325.39 1135.14,-329.72 1139.95,-334.8"/>
</g>
<!-- ninrode -->
<g id="node28" class="node">
<title>ninrode</title>
<polygon fill="none" stroke="black" points="1272.75,-324 1211.75,-324 1211.75,-288 1272.75,-288 1272.75,-324"/>
<text text-anchor="middle" x="1242.25" y="-300.57" font-family="Times,serif" font-size="14.00">Ninrode</text>
</g>
<!-- cuxe&#45;&gt;ninrode -->
<g id="edge27" class="edge">
<title>cuxe&#45;&gt;ninrode</title>
<path fill="none" stroke="black" d="M1128.21,-359.52C1150.38,-349.31 1178.36,-336.42 1201.06,-325.97"/>
<polygon fill="black" stroke="black" points="1202.41,-329.2 1210.03,-321.84 1199.48,-322.84 1202.41,-329.2"/>
</g>
<!-- ludim -->
<g id="node31" class="node">
<title>ludim</title>
<polygon fill="none" stroke="black" points="1345.25,-324 1291.25,-324 1291.25,-288 1345.25,-288 1345.25,-324"/>
<text text-anchor="middle" x="1318.25" y="-300.57" font-family="Times,serif" font-size="14.00">Ludim</text>
</g>
<!-- mizraim&#45;&gt;ludim -->
<g id="edge30" class="edge">
<title>mizraim&#45;&gt;ludim</title>
<path fill="none" stroke="black" d="M1520.16,-370.28C1482.62,-362.02 1418.59,-346.67 1355.99,-324.31"/>
<polygon fill="black" stroke="black" points="1357.57,-321.16 1346.97,-321.03 1355.17,-327.74 1357.57,-321.16"/>
</g>
<!-- anamim -->
<g id="node32" class="node">
<title>anamim</title>
<polygon fill="none" stroke="black" points="1427.62,-324 1362.88,-324 1362.88,-288 1427.62,-288 1427.62,-324"/>
<text text-anchor="middle" x="1395.25" y="-300.57" font-family="Times,serif" font-size="14.00">Anamim</text>
</g>
<!-- mizraim&#45;&gt;anamim -->
<g id="edge31" class="edge">
<title>mizraim&#45;&gt;anamim</title>
<path fill="none" stroke="black" d="M1520.48,-362.83C1496.85,-352.3 1464.35,-337.81 1438.38,-326.23"/>
<polygon fill="black" stroke="black" points="1440,-323.12 1429.44,-322.24 1437.15,-329.51 1440,-323.12"/>
</g>
<!-- leabim -->
<g id="node33" class="node">
<title>leabim</title>
<polygon fill="none" stroke="black" points="1503.25,-324 1445.25,-324 1445.25,-288 1503.25,-288 1503.25,-324"/>
<text text-anchor="middle" x="1474.25" y="-300.57" font-family="Times,serif" font-size="14.00">Leabim</text>
</g>
<!-- mizraim&#45;&gt;leabim -->
<g id="edge32" class="edge">
<title>mizraim&#45;&gt;leabim</title>
<path fill="none" stroke="black" d="M1532.97,-359.7C1523.59,-351.28 1512.16,-341.02 1501.87,-331.79"/>
<polygon fill="black" stroke="black" points="1504.49,-329.43 1494.71,-325.36 1499.81,-334.64 1504.49,-329.43"/>
</g>
<!-- naftuim -->
<g id="node34" class="node">
<title>naftuim</title>
<polygon fill="none" stroke="black" points="1583.5,-324 1521,-324 1521,-288 1583.5,-288 1583.5,-324"/>
<text text-anchor="middle" x="1552.25" y="-300.57" font-family="Times,serif" font-size="14.00">Naftuim</text>
</g>
<!-- mizraim&#45;&gt;naftuim -->
<g id="edge33" class="edge">
<title>mizraim&#45;&gt;naftuim</title>
<path fill="none" stroke="black" d="M1552.25,-359.7C1552.25,-352.41 1552.25,-343.73 1552.25,-335.54"/>
<polygon fill="black" stroke="black" points="1555.75,-335.62 1552.25,-325.62 1548.75,-335.62 1555.75,-335.62"/>
</g>
<!-- patrusim -->
<g id="node35" class="node">
<title>patrusim</title>
<polygon fill="none" stroke="black" points="1666.62,-324 1601.88,-324 1601.88,-288 1666.62,-288 1666.62,-324"/>
<text text-anchor="middle" x="1634.25" y="-300.57" font-family="Times,serif" font-size="14.00">Patrusim</text>
</g>
<!-- mizraim&#45;&gt;patrusim -->
<g id="edge34" class="edge">
<title>mizraim&#45;&gt;patrusim</title>
<path fill="none" stroke="black" d="M1572.52,-359.7C1582.38,-351.28 1594.4,-341.02 1605.21,-331.79"/>
<polygon fill="black" stroke="black" points="1607.44,-334.48 1612.78,-325.33 1602.9,-329.16 1607.44,-334.48"/>
</g>
<!-- caslusim -->
<g id="node36" class="node">
<title>caslusim</title>
<polygon fill="none" stroke="black" points="1840,-324 1684.5,-324 1684.5,-288 1840,-288 1840,-324"/>
<text text-anchor="middle" x="1762.25" y="-300.57" font-family="Times,serif" font-size="14.00">Caslusim (orig. Filisteus)</text>
</g>
<!-- mizraim&#45;&gt;caslusim -->
<g id="edge35" class="edge">
<title>mizraim&#45;&gt;caslusim</title>
<path fill="none" stroke="black" d="M1584.37,-363.36C1587.36,-362.19 1590.35,-361.05 1593.25,-360 1625.04,-348.45 1660.71,-337.04 1691.06,-327.79"/>
<polygon fill="black" stroke="black" points="1691.98,-331.16 1700.53,-324.91 1689.95,-324.46 1691.98,-331.16"/>
</g>
<!-- caftorim -->
<g id="node37" class="node">
<title>caftorim</title>
<polygon fill="none" stroke="black" points="1924.38,-324 1858.12,-324 1858.12,-288 1924.38,-288 1924.38,-324"/>
<text text-anchor="middle" x="1891.25" y="-300.57" font-family="Times,serif" font-size="14.00">Caftorim</text>
</g>
<!-- mizraim&#45;&gt;caftorim -->
<g id="edge36" class="edge">
<title>mizraim&#45;&gt;caftorim</title>
<path fill="none" stroke="black" d="M1584.21,-362.85C1587.23,-361.78 1590.28,-360.81 1593.25,-360 1700.63,-330.7 1736.07,-352.33 1847.05,-324.18"/>
<polygon fill="black" stroke="black" points="1847.78,-327.61 1856.57,-321.69 1846.01,-320.84 1847.78,-327.61"/>
</g>
<!-- cananeus -->
<g id="node38" class="node">
<title>cananeus</title>
<polygon fill="none" stroke="black" points="2008,-324 1942.5,-324 1942.5,-288 2008,-288 2008,-324"/>
<text text-anchor="middle" x="1975.25" y="-300.57" font-family="Times,serif" font-size="14.00">cananeus</text>
</g>
<!-- canaa&#45;&gt;cananeus -->
<g id="edge37" class="edge">
<title>canaa&#45;&gt;cananeus</title>
<path fill="none" stroke="black" d="M1865.64,-363C1884.65,-353.29 1910.37,-340.15 1932.11,-329.04"/>
<polygon fill="black" stroke="black" points="1933.44,-332.29 1940.75,-324.63 1930.25,-326.06 1933.44,-332.29"/>
</g>
<!-- saba -->
<g id="node29" class="node">
<title>saba</title>
<polygon fill="none" stroke="black" points="1052.25,-252 998.25,-252 998.25,-216 1052.25,-216 1052.25,-252"/>
<text text-anchor="middle" x="1025.25" y="-228.57" font-family="Times,serif" font-size="14.00">Sabá</text>
</g>
<!-- raama&#45;&gt;saba -->
<g id="edge28" class="edge">
<title>raama&#45;&gt;saba</title>
<path fill="none" stroke="black" d="M1074.18,-287.7C1066.55,-279.47 1057.27,-269.48 1048.85,-260.42"/>
<polygon fill="black" stroke="black" points="1051.53,-258.16 1042.16,-253.21 1046.4,-262.92 1051.53,-258.16"/>
</g>
<!-- deda -->
<g id="node30" class="node">
<title>deda</title>
<polygon fill="none" stroke="black" points="1124.25,-252 1070.25,-252 1070.25,-216 1124.25,-216 1124.25,-252"/>
<text text-anchor="middle" x="1097.25" y="-228.57" font-family="Times,serif" font-size="14.00">Dedã</text>
</g>
<!-- raama&#45;&gt;deda -->
<g id="edge29" class="edge">
<title>raama&#45;&gt;deda</title>
<path fill="none" stroke="black" d="M1091.98,-287.7C1092.71,-280.41 1093.58,-271.73 1094.4,-263.54"/>
<polygon fill="black" stroke="black" points="1097.88,-263.91 1095.39,-253.61 1090.91,-263.21 1097.88,-263.91"/>
</g>
<!-- sidom -->
<g id="node39" class="node">
<title>sidom</title>
<polygon fill="none" stroke="black" points="1606.25,-252 1552.25,-252 1552.25,-216 1606.25,-216 1606.25,-252"/>
<text text-anchor="middle" x="1579.25" y="-228.57" font-family="Times,serif" font-size="14.00">Sidom</text>
</g>
<!-- cananeus&#45;&gt;sidom -->
<g id="edge38" class="edge">
<title>cananeus&#45;&gt;sidom</title>
<path fill="none" stroke="black" d="M1942.05,-290.61C1939.11,-289.63 1936.15,-288.74 1933.25,-288 1798.89,-253.88 1754.33,-289.01 1617.31,-252"/>
<polygon fill="black" stroke="black" points="1618.44,-248.68 1607.86,-249.36 1616.56,-255.42 1618.44,-248.68"/>
</g>
<!-- hete -->
<g id="node40" class="node">
<title>hete</title>
<polygon fill="none" stroke="black" points="1678.25,-252 1624.25,-252 1624.25,-216 1678.25,-216 1678.25,-252"/>
<text text-anchor="middle" x="1651.25" y="-228.57" font-family="Times,serif" font-size="14.00">Hete</text>
</g>
<!-- cananeus&#45;&gt;hete -->
<g id="edge39" class="edge">
<title>cananeus&#45;&gt;hete</title>
<path fill="none" stroke="black" d="M1942.03,-290.72C1939.09,-289.71 1936.13,-288.78 1933.25,-288 1830.04,-260 1795.27,-282.39 1689.27,-252.07"/>
<polygon fill="black" stroke="black" points="1690.47,-248.77 1679.89,-249.29 1688.48,-255.48 1690.47,-248.77"/>
</g>
<!-- jebuseus -->
<g id="node41" class="node">
<title>jebuseus</title>
<polygon fill="none" stroke="black" points="1759.88,-252 1696.62,-252 1696.62,-216 1759.88,-216 1759.88,-252"/>
<text text-anchor="middle" x="1728.25" y="-228.57" font-family="Times,serif" font-size="14.00">jebuseus</text>
</g>
<!-- cananeus&#45;&gt;jebuseus -->
<g id="edge40" class="edge">
<title>cananeus&#45;&gt;jebuseus</title>
<path fill="none" stroke="black" d="M1942.43,-291.1C1939.35,-289.99 1936.26,-288.93 1933.25,-288 1865.31,-266.96 1842.57,-273.65 1771.18,-252.27"/>
<polygon fill="black" stroke="black" points="1772.31,-248.96 1761.73,-249.36 1770.25,-255.65 1772.31,-248.96"/>
</g>
<!-- amorreus -->
<g id="node42" class="node">
<title>amorreus</title>
<polygon fill="none" stroke="black" points="1844.38,-252 1778.12,-252 1778.12,-216 1844.38,-216 1844.38,-252"/>
<text text-anchor="middle" x="1811.25" y="-228.57" font-family="Times,serif" font-size="14.00">amorreus</text>
</g>
<!-- cananeus&#45;&gt;amorreus -->
<g id="edge41" class="edge">
<title>cananeus&#45;&gt;amorreus</title>
<path fill="none" stroke="black" d="M1942.06,-290.83C1917.03,-280.15 1882.44,-265.39 1855.13,-253.73"/>
<polygon fill="black" stroke="black" points="1856.63,-250.57 1846.06,-249.86 1853.88,-257 1856.63,-250.57"/>
</g>
<!-- girgaseus -->
<g id="node43" class="node">
<title>girgaseus</title>
<polygon fill="none" stroke="black" points="1929.75,-252 1862.75,-252 1862.75,-216 1929.75,-216 1929.75,-252"/>
<text text-anchor="middle" x="1896.25" y="-228.57" font-family="Times,serif" font-size="14.00">girgaseus</text>
</g>
<!-- cananeus&#45;&gt;girgaseus -->
<g id="edge42" class="edge">
<title>cananeus&#45;&gt;girgaseus</title>
<path fill="none" stroke="black" d="M1955.72,-287.7C1946.23,-279.28 1934.64,-269.02 1924.23,-259.79"/>
<polygon fill="black" stroke="black" points="1926.77,-257.36 1916.96,-253.35 1922.12,-262.6 1926.77,-257.36"/>
</g>
<!-- heveus -->
<g id="node44" class="node">
<title>heveus</title>
<polygon fill="none" stroke="black" points="2002.25,-252 1948.25,-252 1948.25,-216 2002.25,-216 2002.25,-252"/>
<text text-anchor="middle" x="1975.25" y="-228.57" font-family="Times,serif" font-size="14.00">heveus</text>
</g>
<!-- cananeus&#45;&gt;heveus -->
<g id="edge43" class="edge">
<title>cananeus&#45;&gt;heveus</title>
<path fill="none" stroke="black" d="M1975.25,-287.7C1975.25,-280.41 1975.25,-271.73 1975.25,-263.54"/>
<polygon fill="black" stroke="black" points="1978.75,-263.62 1975.25,-253.62 1971.75,-263.62 1978.75,-263.62"/>
</g>
<!-- arqueus -->
<g id="node45" class="node">
<title>arqueus</title>
<polygon fill="none" stroke="black" points="2078.25,-252 2020.25,-252 2020.25,-216 2078.25,-216 2078.25,-252"/>
<text text-anchor="middle" x="2049.25" y="-228.57" font-family="Times,serif" font-size="14.00">arqueus</text>
</g>
<!-- cananeus&#45;&gt;arqueus -->
<g id="edge44" class="edge">
<title>cananeus&#45;&gt;arqueus</title>
<path fill="none" stroke="black" d="M1993.54,-287.7C2002.35,-279.37 2013.07,-269.22 2022.75,-260.07"/>
<polygon fill="black" stroke="black" points="2024.95,-262.8 2029.81,-253.39 2020.14,-257.72 2024.95,-262.8"/>
</g>
<!-- sineus -->
<g id="node46" class="node">
<title>sineus</title>
<polygon fill="none" stroke="black" points="2150.25,-252 2096.25,-252 2096.25,-216 2150.25,-216 2150.25,-252"/>
<text text-anchor="middle" x="2123.25" y="-228.57" font-family="Times,serif" font-size="14.00">sineus</text>
</g>
<!-- cananeus&#45;&gt;sineus -->
<g id="edge45" class="edge">
<title>cananeus&#45;&gt;sineus</title>
<path fill="none" stroke="black" d="M2008.46,-289.29C2031.48,-278.41 2062.15,-263.9 2085.99,-252.62"/>
<polygon fill="black" stroke="black" points="2087.17,-255.94 2094.72,-248.5 2084.18,-249.61 2087.17,-255.94"/>
</g>
<!-- arvadeus -->
<g id="node47" class="node">
<title>arvadeus</title>
<polygon fill="none" stroke="black" points="2231.88,-252 2168.62,-252 2168.62,-216 2231.88,-216 2231.88,-252"/>
<text text-anchor="middle" x="2200.25" y="-228.57" font-family="Times,serif" font-size="14.00">arvadeus</text>
</g>
<!-- cananeus&#45;&gt;arvadeus -->
<g id="edge46" class="edge">
<title>cananeus&#45;&gt;arvadeus</title>
<path fill="none" stroke="black" d="M2008.21,-290.85C2010.91,-289.84 2013.62,-288.87 2016.25,-288 2075.18,-268.48 2094.96,-272.13 2157.36,-252.34"/>
<polygon fill="black" stroke="black" points="2158.33,-255.71 2166.75,-249.28 2156.16,-249.05 2158.33,-255.71"/>
</g>
<!-- zemareus -->
<g id="node48" class="node">
<title>zemareus</title>
<polygon fill="none" stroke="black" points="2316.75,-252 2249.75,-252 2249.75,-216 2316.75,-216 2316.75,-252"/>
<text text-anchor="middle" x="2283.25" y="-228.57" font-family="Times,serif" font-size="14.00">zemareus</text>
</g>
<!-- cananeus&#45;&gt;zemareus -->
<g id="edge47" class="edge">
<title>cananeus&#45;&gt;zemareus</title>
<path fill="none" stroke="black" d="M2008.13,-290.59C2010.85,-289.63 2013.58,-288.76 2016.25,-288 2110.27,-261.39 2141.5,-277.91 2238.66,-252.37"/>
<polygon fill="black" stroke="black" points="2239.36,-255.8 2248.09,-249.8 2237.52,-249.05 2239.36,-255.8"/>
</g>
<!-- hamateus -->
<g id="node49" class="node">
<title>hamateus</title>
<polygon fill="none" stroke="black" points="2401.75,-252 2334.75,-252 2334.75,-216 2401.75,-216 2401.75,-252"/>
<text text-anchor="middle" x="2368.25" y="-228.57" font-family="Times,serif" font-size="14.00">hamateus</text>
</g>
<!-- cananeus&#45;&gt;hamateus -->
<g id="edge48" class="edge">
<title>cananeus&#45;&gt;hamateus</title>
<path fill="none" stroke="black" d="M2008.1,-290.46C2010.82,-289.54 2013.57,-288.7 2016.25,-288 2146.95,-254.02 2189.62,-284.63 2323.51,-252.3"/>
<polygon fill="black" stroke="black" points="2324.26,-255.72 2333.12,-249.9 2322.57,-248.93 2324.26,-255.72"/>
</g>
<!-- elao -->
<g id="node51" class="node">
<title>elao</title>
<polygon fill="none" stroke="black" points="457.25,-324 403.25,-324 403.25,-288 457.25,-288 457.25,-324"/>
<text text-anchor="middle" x="430.25" y="-300.57" font-family="Times,serif" font-size="14.00">Elão</text>
</g>
<!-- semitas&#45;&gt;elao -->
<g id="edge50" class="edge">
<title>semitas&#45;&gt;elao</title>
<path fill="none" stroke="black" d="M644.27,-371.4C605.81,-363.59 535.78,-348.01 468.34,-324.4"/>
<polygon fill="black" stroke="black" points="469.56,-321.12 458.96,-321.05 467.2,-327.72 469.56,-321.12"/>
</g>
<!-- assur -->
<g id="node52" class="node">
<title>assur</title>
<polygon fill="none" stroke="black" points="529.25,-324 475.25,-324 475.25,-288 529.25,-288 529.25,-324"/>
<text text-anchor="middle" x="502.25" y="-300.57" font-family="Times,serif" font-size="14.00">Assur</text>
</g>
<!-- semitas&#45;&gt;assur -->
<g id="edge51" class="edge">
<title>semitas&#45;&gt;assur</title>
<path fill="none" stroke="black" d="M644.32,-366.28C618.97,-356.76 580.96,-342.14 540.12,-324.68"/>
<polygon fill="black" stroke="black" points="541.64,-321.53 531.07,-320.78 538.87,-327.96 541.64,-321.53"/>
</g>
<!-- arfaxade -->
<g id="node53" class="node">
<title>arfaxade</title>
<polygon fill="none" stroke="black" points="685,-324 547.5,-324 547.5,-288 685,-288 685,-324"/>
<text text-anchor="middle" x="616.25" y="-300.57" font-family="Times,serif" font-size="14.00">Arfaxade (Arpachade)</text>
</g>
<!-- semitas&#45;&gt;arfaxade -->
<g id="edge52" class="edge">
<title>semitas&#45;&gt;arfaxade</title>
<path fill="none" stroke="black" d="M659.16,-359.7C652.6,-351.64 644.66,-341.89 637.41,-332.98"/>
<polygon fill="black" stroke="black" points="640.16,-330.82 631.13,-325.28 634.73,-335.24 640.16,-330.82"/>
</g>
<!-- lude -->
<g id="node54" class="node">
<title>lude</title>
<polygon fill="none" stroke="black" points="757.25,-324 703.25,-324 703.25,-288 757.25,-288 757.25,-324"/>
<text text-anchor="middle" x="730.25" y="-300.57" font-family="Times,serif" font-size="14.00">Lude</text>
</g>
<!-- semitas&#45;&gt;lude -->
<g id="edge53" class="edge">
<title>semitas&#45;&gt;lude</title>
<path fill="none" stroke="black" d="M687.34,-359.7C693.9,-351.64 701.84,-341.89 709.09,-332.98"/>
<polygon fill="black" stroke="black" points="711.77,-335.24 715.37,-325.28 706.34,-330.82 711.77,-335.24"/>
</g>
<!-- ara -->
<g id="node55" class="node">
<title>ara</title>
<polygon fill="none" stroke="black" points="829.25,-324 775.25,-324 775.25,-288 829.25,-288 829.25,-324"/>
<text text-anchor="middle" x="802.25" y="-300.57" font-family="Times,serif" font-size="14.00">Arã</text>
</g>
<!-- semitas&#45;&gt;ara -->
<g id="edge54" class="edge">
<title>semitas&#45;&gt;ara</title>
<path fill="none" stroke="black" d="M702.2,-361.29C720.8,-351.2 745.13,-338 765.14,-327.14"/>
<polygon fill="black" stroke="black" points="766.71,-330.27 773.83,-322.42 763.37,-324.12 766.71,-330.27"/>
</g>
<!-- sala -->
<g id="node60" class="node">
<title>sala</title>
<polygon fill="none" stroke="black" points="653.88,-252 578.62,-252 578.62,-216 653.88,-216 653.88,-252"/>
<text text-anchor="middle" x="616.25" y="-228.57" font-family="Times,serif" font-size="14.00">Salá (Selá)</text>
</g>
<!-- arfaxade&#45;&gt;sala -->
<g id="edge59" class="edge">
<title>arfaxade&#45;&gt;sala</title>
<path fill="none" stroke="black" d="M616.25,-287.7C616.25,-280.41 616.25,-271.73 616.25,-263.54"/>
<polygon fill="black" stroke="black" points="619.75,-263.62 616.25,-253.62 612.75,-263.62 619.75,-263.62"/>
</g>
<!-- uz -->
<g id="node56" class="node">
<title>uz</title>
<polygon fill="none" stroke="black" points="749.25,-252 695.25,-252 695.25,-216 749.25,-216 749.25,-252"/>
<text text-anchor="middle" x="722.25" y="-228.57" font-family="Times,serif" font-size="14.00">Uz</text>
</g>
<!-- ara&#45;&gt;uz -->
<g id="edge55" class="edge">
<title>ara&#45;&gt;uz</title>
<path fill="none" stroke="black" d="M782.47,-287.7C772.86,-279.28 761.13,-269.02 750.58,-259.79"/>
<polygon fill="black" stroke="black" points="753.04,-257.29 743.21,-253.34 748.44,-262.56 753.04,-257.29"/>
</g>
<!-- hul -->
<g id="node57" class="node">
<title>hul</title>
<polygon fill="none" stroke="black" points="821.25,-252 767.25,-252 767.25,-216 821.25,-216 821.25,-252"/>
<text text-anchor="middle" x="794.25" y="-228.57" font-family="Times,serif" font-size="14.00">Hul</text>
</g>
<!-- ara&#45;&gt;hul -->
<g id="edge56" class="edge">
<title>ara&#45;&gt;hul</title>
<path fill="none" stroke="black" d="M800.27,-287.7C799.44,-280.41 798.45,-271.73 797.51,-263.54"/>
<polygon fill="black" stroke="black" points="800.99,-263.15 796.38,-253.61 794.03,-263.94 800.99,-263.15"/>
</g>
<!-- geter -->
<g id="node58" class="node">
<title>geter</title>
<polygon fill="none" stroke="black" points="893.25,-252 839.25,-252 839.25,-216 893.25,-216 893.25,-252"/>
<text text-anchor="middle" x="866.25" y="-228.57" font-family="Times,serif" font-size="14.00">Géter</text>
</g>
<!-- ara&#45;&gt;geter -->
<g id="edge57" class="edge">
<title>ara&#45;&gt;geter</title>
<path fill="none" stroke="black" d="M818.07,-287.7C825.59,-279.47 834.72,-269.48 843.01,-260.42"/>
<polygon fill="black" stroke="black" points="845.43,-262.96 849.59,-253.22 840.26,-258.24 845.43,-262.96"/>
</g>
<!-- mas -->
<g id="node59" class="node">
<title>mas</title>
<polygon fill="none" stroke="black" points="965.25,-252 911.25,-252 911.25,-216 965.25,-216 965.25,-252"/>
<text text-anchor="middle" x="938.25" y="-228.57" font-family="Times,serif" font-size="14.00">Mas</text>
</g>
<!-- ara&#45;&gt;mas -->
<g id="edge58" class="edge">
<title>ara&#45;&gt;mas</title>
<path fill="none" stroke="black" d="M829.44,-291C850.01,-280.42 878.49,-265.76 901.15,-254.1"/>
<polygon fill="black" stroke="black" points="902.47,-257.35 909.76,-249.67 899.26,-251.13 902.47,-257.35"/>
</g>
<!-- eber -->
<g id="node61" class="node">
<title>eber</title>
<polygon fill="none" stroke="black" points="643.25,-180 589.25,-180 589.25,-144 643.25,-144 643.25,-180"/>
<text text-anchor="middle" x="616.25" y="-156.57" font-family="Times,serif" font-size="14.00">Éber</text>
</g>
<!-- sala&#45;&gt;eber -->
<g id="edge60" class="edge">
<title>sala&#45;&gt;eber</title>
<path fill="none" stroke="black" d="M616.25,-215.7C616.25,-208.41 616.25,-199.73 616.25,-191.54"/>
<polygon fill="black" stroke="black" points="619.75,-191.62 616.25,-181.62 612.75,-191.62 619.75,-191.62"/>
</g>
<!-- pelegue -->
<g id="node62" class="node">
<title>pelegue</title>
<polygon fill="none" stroke="black" points="608.62,-108 549.88,-108 549.88,-72 608.62,-72 608.62,-108"/>
<text text-anchor="middle" x="579.25" y="-84.58" font-family="Times,serif" font-size="14.00">Pelegue</text>
</g>
<!-- eber&#45;&gt;pelegue -->
<g id="edge61" class="edge">
<title>eber&#45;&gt;pelegue</title>
<path fill="none" stroke="black" d="M607.1,-143.7C603.03,-135.98 598.13,-126.71 593.58,-118.11"/>
<polygon fill="black" stroke="black" points="596.77,-116.65 589,-109.44 590.58,-119.92 596.77,-116.65"/>
</g>
<!-- jocta -->
<g id="node63" class="node">
<title>jocta</title>
<polygon fill="none" stroke="black" points="680.25,-108 626.25,-108 626.25,-72 680.25,-72 680.25,-108"/>
<text text-anchor="middle" x="653.25" y="-84.58" font-family="Times,serif" font-size="14.00">Joctã</text>
</g>
<!-- eber&#45;&gt;jocta -->
<g id="edge62" class="edge">
<title>eber&#45;&gt;jocta</title>
<path fill="none" stroke="black" d="M625.4,-143.7C629.47,-135.98 634.37,-126.71 638.92,-118.11"/>
<polygon fill="black" stroke="black" points="641.92,-119.92 643.5,-109.44 635.73,-116.65 641.92,-119.92"/>
</g>
<!-- almoda -->
<g id="node64" class="node">
<title>almoda</title>
<polygon fill="none" stroke="black" points="128.5,-36 0,-36 0,0 128.5,0 128.5,-36"/>
<text text-anchor="middle" x="64.25" y="-12.57" font-family="Times,serif" font-size="14.00">Almodá (Almodade)</text>
</g>
<!-- jocta&#45;&gt;almoda -->
<g id="edge63" class="edge">
<title>jocta&#45;&gt;almoda</title>
<path fill="none" stroke="black" d="M626.12,-74.93C623.18,-73.79 620.19,-72.78 617.25,-72 413.93,-18.34 350.87,-66.65 139.78,-36.22"/>
<polygon fill="black" stroke="black" points="140.54,-32.79 130.13,-34.78 139.5,-39.72 140.54,-32.79"/>
</g>
<!-- selefe -->
<g id="node65" class="node">
<title>selefe</title>
<polygon fill="none" stroke="black" points="200.25,-36 146.25,-36 146.25,0 200.25,0 200.25,-36"/>
<text text-anchor="middle" x="173.25" y="-12.57" font-family="Times,serif" font-size="14.00">Selefe</text>
</g>
<!-- jocta&#45;&gt;selefe -->
<g id="edge64" class="edge">
<title>jocta&#45;&gt;selefe</title>
<path fill="none" stroke="black" d="M626.11,-74.97C623.18,-73.82 620.19,-72.8 617.25,-72 445.06,-25.35 387.27,-81.28 211.32,-35.94"/>
<polygon fill="black" stroke="black" points="212.41,-32.61 201.85,-33.42 210.61,-39.37 212.41,-32.61"/>
</g>
<!-- hazarmave -->
<g id="node66" class="node">
<title>hazarmave</title>
<polygon fill="none" stroke="black" points="384.25,-36 218.25,-36 218.25,0 384.25,0 384.25,-36"/>
<text text-anchor="middle" x="301.25" y="-12.57" font-family="Times,serif" font-size="14.00">Hazar&#45;Mavé (Hazarmavete)</text>
</g>
<!-- jocta&#45;&gt;hazarmave -->
<g id="edge65" class="edge">
<title>jocta&#45;&gt;hazarmave</title>
<path fill="none" stroke="black" d="M626.05,-75.18C623.13,-73.99 620.16,-72.9 617.25,-72 524.31,-43.22 494.69,-52.44 395.59,-36.33"/>
<polygon fill="black" stroke="black" points="396.41,-32.92 385.97,-34.72 395.25,-39.83 396.41,-32.92"/>
</g>
<!-- jera -->
<g id="node67" class="node">
<title>jera</title>
<polygon fill="none" stroke="black" points="456.25,-36 402.25,-36 402.25,0 456.25,0 456.25,-36"/>
<text text-anchor="middle" x="429.25" y="-12.57" font-family="Times,serif" font-size="14.00">Jerá</text>
</g>
<!-- jocta&#45;&gt;jera -->
<g id="edge66" class="edge">
<title>jocta&#45;&gt;jera</title>
<path fill="none" stroke="black" d="M625.98,-75.4C623.07,-74.17 620.12,-73.01 617.25,-72 554.93,-50.17 532.93,-58.06 467.03,-36.21"/>
<polygon fill="black" stroke="black" points="468.55,-33.03 457.95,-33.09 466.27,-39.65 468.55,-33.03"/>
</g>
<!-- hadorao -->
<g id="node68" class="node">
<title>hadorao</title>
<polygon fill="none" stroke="black" points="536.5,-36 474,-36 474,0 536.5,0 536.5,-36"/>
<text text-anchor="middle" x="505.25" y="-12.57" font-family="Times,serif" font-size="14.00">Hadorão</text>
</g>
<!-- jocta&#45;&gt;hadorao -->
<g id="edge67" class="edge">
<title>jocta&#45;&gt;hadorao</title>
<path fill="none" stroke="black" d="M625.76,-76C603.74,-65.58 572.49,-50.8 547.33,-38.9"/>
<polygon fill="black" stroke="black" points="548.87,-35.76 538.33,-34.65 545.87,-42.09 548.87,-35.76"/>
</g>
<!-- uzal -->
<g id="node69" class="node">
<title>uzal</title>
<polygon fill="none" stroke="black" points="608.25,-36 554.25,-36 554.25,0 608.25,0 608.25,-36"/>
<text text-anchor="middle" x="581.25" y="-12.57" font-family="Times,serif" font-size="14.00">Uzal</text>
</g>
<!-- jocta&#45;&gt;uzal -->
<g id="edge68" class="edge">
<title>jocta&#45;&gt;uzal</title>
<path fill="none" stroke="black" d="M635.45,-71.7C626.97,-63.45 616.66,-53.43 607.32,-44.35"/>
<polygon fill="black" stroke="black" points="609.79,-41.86 600.18,-37.4 604.91,-46.88 609.79,-41.86"/>
</g>
<!-- dicla -->
<g id="node70" class="node">
<title>dicla</title>
<polygon fill="none" stroke="black" points="680.25,-36 626.25,-36 626.25,0 680.25,0 680.25,-36"/>
<text text-anchor="middle" x="653.25" y="-12.57" font-family="Times,serif" font-size="14.00">Diclá</text>
</g>
<!-- jocta&#45;&gt;dicla -->
<g id="edge69" class="edge">
<title>jocta&#45;&gt;dicla</title>
<path fill="none" stroke="black" d="M653.25,-71.7C653.25,-64.41 653.25,-55.73 653.25,-47.54"/>
<polygon fill="black" stroke="black" points="656.75,-47.62 653.25,-37.62 649.75,-47.62 656.75,-47.62"/>
</g>
<!-- obal -->
<g id="node71" class="node">
<title>obal</title>
<polygon fill="none" stroke="black" points="752.25,-36 698.25,-36 698.25,0 752.25,0 752.25,-36"/>
<text text-anchor="middle" x="725.25" y="-12.57" font-family="Times,serif" font-size="14.00">Obal</text>
</g>
<!-- jocta&#45;&gt;obal -->
<g id="edge70" class="edge">
<title>jocta&#45;&gt;obal</title>
<path fill="none" stroke="black" d="M671.05,-71.7C679.53,-63.45 689.84,-53.43 699.18,-44.35"/>
<polygon fill="black" stroke="black" points="701.59,-46.88 706.32,-37.4 696.71,-41.86 701.59,-46.88"/>
</g>
<!-- abimael -->
<g id="node72" class="node">
<title>abimael</title>
<polygon fill="none" stroke="black" points="832.5,-36 770,-36 770,0 832.5,0 832.5,-36"/>
<text text-anchor="middle" x="801.25" y="-12.57" font-family="Times,serif" font-size="14.00">Abimael</text>
</g>
<!-- jocta&#45;&gt;abimael -->
<g id="edge71" class="edge">
<title>jocta&#45;&gt;abimael</title>
<path fill="none" stroke="black" d="M680.74,-76C702.76,-65.58 734.01,-50.8 759.17,-38.9"/>
<polygon fill="black" stroke="black" points="760.63,-42.09 768.17,-34.65 757.63,-35.76 760.63,-42.09"/>
</g>
<!-- saba2 -->
<g id="node73" class="node">
<title>saba2</title>
<polygon fill="none" stroke="black" points="904.25,-36 850.25,-36 850.25,0 904.25,0 904.25,-36"/>
<text text-anchor="middle" x="877.25" y="-12.57" font-family="Times,serif" font-size="14.00">Sabá</text>
</g>
<!-- jocta&#45;&gt;saba2 -->
<g id="edge72" class="edge">
<title>jocta&#45;&gt;saba2</title>
<path fill="none" stroke="black" d="M680.48,-82.83C715.43,-74.6 778.02,-58.77 839.31,-36.42"/>
<polygon fill="black" stroke="black" points="840.36,-39.76 848.52,-33 837.92,-33.2 840.36,-39.76"/>
</g>
<!-- ofir -->
<g id="node74" class="node">
<title>ofir</title>
<polygon fill="none" stroke="black" points="976.25,-36 922.25,-36 922.25,0 976.25,0 976.25,-36"/>
<text text-anchor="middle" x="949.25" y="-12.57" font-family="Times,serif" font-size="14.00">Ofir</text>
</g>
<!-- jocta&#45;&gt;ofir -->
<g id="edge73" class="edge">
<title>jocta&#45;&gt;ofir</title>
<path fill="none" stroke="black" d="M680.38,-85.66C726.42,-79.52 822.72,-64.7 911.26,-36.23"/>
<polygon fill="black" stroke="black" points="912.17,-39.62 920.57,-33.16 909.98,-32.97 912.17,-39.62"/>
</g>
<!-- havila2 -->
<g id="node75" class="node">
<title>havila2</title>
<polygon fill="none" stroke="black" points="1048.25,-36 994.25,-36 994.25,0 1048.25,0 1048.25,-36"/>
<text text-anchor="middle" x="1021.25" y="-12.57" font-family="Times,serif" font-size="14.00">Havilá</text>
</g>
<!-- jocta&#45;&gt;havila2 -->
<g id="edge74" class="edge">
<title>jocta&#45;&gt;havila2</title>
<path fill="none" stroke="black" d="M680.52,-87.26C736.27,-83.16 867.15,-70.74 983.23,-36.13"/>
<polygon fill="black" stroke="black" points="984.06,-39.53 992.61,-33.26 982.02,-32.83 984.06,-39.53"/>
</g>
<!-- jobabe -->
<g id="node76" class="node">
<title>jobabe</title>
<polygon fill="none" stroke="black" points="1120.25,-36 1066.25,-36 1066.25,0 1120.25,0 1120.25,-36"/>
<text text-anchor="middle" x="1093.25" y="-12.57" font-family="Times,serif" font-size="14.00">Jobabe</text>
</g>
<!-- jocta&#45;&gt;jobabe -->
<g id="edge75" class="edge">
<title>jocta&#45;&gt;jobabe</title>
<path fill="none" stroke="black" d="M680.31,-88.33C744.56,-86.15 911.08,-76.95 1055.29,-36.03"/>
<polygon fill="black" stroke="black" points="1056,-39.47 1064.62,-33.32 1054.05,-32.75 1056,-39.47"/>
</g>
</g>
</svg>
